HIERARCHY
ROOT Hips
{
	OFFSET 0.000000 0.000000 0.000000
	CHANNELS 6 Xposition Yposition Zposition Zrotation Yrotation Xrotation 
	JOINT LHipJoint
	{
		OFFSET 0.000000 0.000000 0.000000
		CHANNELS 3 Zrotation Yrotation Xrotation
		JOINT LeftUpLeg
		{
			OFFSET 1.363060 -1.794630 0.839290
			CHANNELS 3 Zrotation Yrotation Xrotation
			JOINT LeftLeg
			{
				OFFSET 2.448110 -6.726130 0.000000
				CHANNELS 3 Zrotation Yrotation Xrotation
				JOINT LeftFoot
				{
					OFFSET 2.562200 -7.039590 0.000000
					CHANNELS 3 Zrotation Yrotation Xrotation
					JOINT LeftToeBase
					{
						OFFSET 0.157640 -0.433110 2.322550
						CHANNELS 3 Zrotation Yrotation Xrotation
						End Site
						{
							OFFSET 0.000000 0.000000 0.000000
						}
					}
				}
			}
		}
	}
	JOINT RHipJoint
	{
		OFFSET 0.000000 0.000000 0.000000
		CHANNELS 3 Zrotation Yrotation Xrotation
		JOINT RightUpLeg
		{
			OFFSET -1.305520 -1.794630 0.839290
			CHANNELS 3 Zrotation Yrotation Xrotation
			JOINT RightLeg
			{
				OFFSET -2.542530 -6.985550 0.000000
				CHANNELS 3 Zrotation Yrotation Xrotation
				JOINT RightFoot
				{
					OFFSET -2.568260 -7.056230 0.000000
					CHANNELS 3 Zrotation Yrotation Xrotation
					JOINT RightToeBase
					{
						OFFSET -0.164730 -0.452590 2.363150
						CHANNELS 3 Zrotation Yrotation Xrotation
						End Site
						{
							OFFSET 0.000000 0.000000 0.000000
						}
					}
				}
			}
		}
	}
	JOINT LowerBack
	{
		OFFSET 0.000000 0.000000 0.000000
		CHANNELS 3 Zrotation Yrotation Xrotation
		JOINT Spine
		{
			OFFSET 0.028270 2.035590 -0.193380
			CHANNELS 3 Zrotation Yrotation Xrotation
			JOINT Spine1
			{
				OFFSET 0.056720 2.048850 -0.042750
				CHANNELS 3 Zrotation Yrotation Xrotation
				JOINT Neck
				{
					OFFSET 0.000000 0.000000 0.000000
					CHANNELS 3 Zrotation Yrotation Xrotation
					JOINT Neck1
					{
						OFFSET -0.054170 1.746240 0.172020
						CHANNELS 3 Zrotation Yrotation Xrotation
						JOINT Head
						{
							OFFSET 0.104070 1.761360 -0.123970
							CHANNELS 3 Zrotation Yrotation Xrotation
							End Site
							{
								OFFSET 0.000000 0.000000 0.000000
							}
						}
					}
				}
				JOINT LeftShoulder
				{
					OFFSET 0.000000 0.000000 0.000000
					CHANNELS 3 Zrotation Yrotation Xrotation
					JOINT LeftArm
					{
						OFFSET 3.362410 1.200890 -0.311210
						CHANNELS 3 Zrotation Yrotation Xrotation
						JOINT LeftForeArm
						{
							OFFSET 4.983000 -0.000000 -0.000000
							CHANNELS 3 Zrotation Yrotation Xrotation
							JOINT LeftHand
							{
								OFFSET 3.483560 -0.000000 -0.000000
								CHANNELS 3 Zrotation Yrotation Xrotation
								JOINT LeftFingerBase
								{
									OFFSET 0.000000 0.000000 0.000000
									CHANNELS 3 Zrotation Yrotation Xrotation
									JOINT LeftHandIndex1
									{
										OFFSET 0.715260 -0.000000 -0.000000
										CHANNELS 3 Zrotation Yrotation Xrotation
										End Site
										{
											OFFSET 0.000000 0.000000 0.000000
										}
									}
								}
								JOINT LThumb
								{
									OFFSET 0.000000 0.000000 0.000000
									CHANNELS 3 Zrotation Yrotation Xrotation
									End Site
									{
										OFFSET 0.000000 0.000000 0.000000
									}
								}
							}
						}
					}
				}
				JOINT RightShoulder
				{
					OFFSET 0.000000 0.000000 0.000000
					CHANNELS 3 Zrotation Yrotation Xrotation
					JOINT RightArm
					{
						OFFSET -3.136600 1.374050 -0.404650
						CHANNELS 3 Zrotation Yrotation Xrotation
						JOINT RightForeArm
						{
							OFFSET -5.241900 -0.000000 -0.000000
							CHANNELS 3 Zrotation Yrotation Xrotation
							JOINT RightHand
							{
								OFFSET -3.444170 -0.000000 -0.000000
								CHANNELS 3 Zrotation Yrotation Xrotation
								JOINT RightFingerBase
								{
									OFFSET 0.000000 0.000000 0.000000
									CHANNELS 3 Zrotation Yrotation Xrotation
									JOINT RightHandIndex1
									{
										OFFSET -0.622530 -0.000000 -0.000000
										CHANNELS 3 Zrotation Yrotation Xrotation
										End Site
										{
											OFFSET 0.000000 0.000000 0.000000
										}
									}
								}
								JOINT RThumb
								{
									OFFSET 0.000000 0.000000 0.000000
									CHANNELS 3 Zrotation Yrotation Xrotation
									End Site
									{
										OFFSET 0.000000 0.000000 0.000000
									}
								}
							}
						}
					}
				}
			}
		}
	}
}
MOTION
Frames: 4
Frame Time: 0.008333
3.874157 17.369913 0.949179 -174.111639 -41.410488 -175.014989 -12.219379 3.517181 -2.116797 -4.983292 38.574401 -12.713441 -2.860574 -0.604802 3.541723 2.943227 21.268954 -3.693014 1.507500 -0.000000 -31.958600 8.502613 -1.424992 7.813314 2.294982 17.319653 -17.880395 4.025093 1.137764 0.092050 2.598261 22.932612 14.496867 7.361100 0.000001 -75.025000 1.238044 -5.971167 -9.100887 -0.445948 -6.216603 -4.827792 -8.016147 -6.074118 -2.655456 17.480129 -11.428497 -0.183132 -2.007421 -0.270970 2.138778 0.000000 0.000000 0.000000 15.200440 -14.030707 5.355293 -16.556079 -2.329561 -33.473154 -1.042364 -32.728407 -0.074000 9.227295 -4.595504 -0.425952 -0.203098 0.574423 -0.000000 0.000000 0.000000 0.000000 0.000000 0.000000 0.000000 11.410538 -8.440644 -8.287187 102.203635 49.870371 51.122542 -178.199652 66.826223 179.770040 -20.695425 8.622057 -1.774676 0.469438 -0.874306 -0.000000 0.000000 0.000000 0.000000 0.000000 0.000000 0.000000 
3.878830 17.375438 0.970442 -174.064885 -41.151951 -174.913383 -12.140480 3.542683 -2.191289 -5.173723 38.514269 -12.738845 -2.860585 -0.595793 3.364250 2.978404 21.480116 -3.602451 1.570400 -0.000001 -31.905800 8.605033 -1.323572 7.705446 2.223837 17.167216 -17.999379 4.020356 1.146650 0.041529 2.603136 23.245845 14.630264 7.514700 0.000000 -75.485400 0.877834 -6.238797 -8.895938 -0.469348 -6.435194 -4.727286 -7.903662 -6.299115 -2.493084 17.989569 -11.838053 -0.406119 -1.833691 -0.257776 2.079069 0.000000 0.000000 0.000000 16.610110 -14.539008 5.330660 -13.549235 -4.311135 -35.306197 -1.182722 -24.055894 -0.065828 8.567285 -4.726758 -0.406760 -0.217688 0.570501 -0.000000 0.000000 0.000000 0.000000 0.000000 0.000000 0.000000 11.488006 -9.312497 -8.294067 101.519772 49.866849 50.099582 -178.088209 66.338829 179.771284 -20.749764 8.473173 -1.748202 0.461552 -0.860712 -0.000000 0.000000 0.000000 0.000000 0.000000 0.000000 0.000000 
3.881010 17.382044 0.989922 -174.011599 -40.871825 -174.751213 -12.055573 3.561506 -2.271423 -5.412016 38.479828 -12.828358 -2.867529 -0.590716 3.169796 3.010771 21.676542 -3.487495 1.643000 -0.000000 -31.867000 8.704854 -1.225870 7.623840 2.120611 17.098533 -18.236789 4.007962 1.145363 0.062466 2.606772 23.510302 14.752672 7.652400 0.000000 -75.916799 0.506284 -6.477701 -8.707247 -0.496805 -6.633193 -4.647560 -7.801475 -6.508550 -2.393793 18.490901 -12.220167 -0.632855 -1.671859 -0.245046 2.019405 0.000000 0.000000 0.000000 17.972006 -14.994863 5.234026 -10.691937 -5.948342 -38.073002 -1.246269 -16.433122 -0.056812 7.813551 -4.826613 -0.378930 -0.226381 0.562895 -0.000000 0.000000 0.000000 0.000000 0.000000 0.000000 0.000000 11.597339 -10.118248 -8.252004 100.784533 49.822938 49.000808 -177.972694 65.868771 179.771895 -20.830322 8.316638 -1.722507 0.454101 -0.848200 -0.000000 0.000000 0.000000 0.000000 0.000000 0.000000 0.000000 
3.880597 17.389465 1.007465 -173.960761 -40.545622 -174.538362 -11.972065 3.576503 -2.355711 -5.689002 38.500754 -12.973952 -2.883106 -0.588877 2.964428 3.038360 21.849566 -3.352665 1.721900 -0.000000 -31.836600 8.793778 -1.135892 7.578589 1.984346 17.137825 -18.574741 3.990145 1.135624 0.138430 2.609882 23.720449 14.873900 7.775100 -0.000000 -76.287000 0.161101 -6.686043 -8.548325 -0.523047 -6.811560 -4.589903 -7.718324 -6.701771 -2.348775 18.943264 -12.555747 -0.847431 -1.530535 -0.233557 1.964487 0.000000 0.000000 0.000000 19.314671 -15.435786 5.081381 -8.103369 -7.018804 -41.828592 -1.193282 -10.302196 -0.050001 7.235734 -4.901369 -0.356256 -0.229382 0.554166 -0.000000 0.000000 0.000000 0.000000 0.000000 0.000000 0.000000 11.721213 -10.823572 -8.172736 100.052310 49.733827 47.898514 -177.857528 65.455784 179.771999 -20.924729 8.163296 -1.698693 0.446947 -0.837124 -0.000000 0.000000 0.000000 0.000000 0.000000 0.000000 0.000000 
